<?xml version="1.0" standalone="no"?>
<!DOCTYPE svg PUBLIC "-//W3C//DTD SVG 20010904//EN"
 "http://www.w3.org/TR/2001/REC-SVG-20010904/DTD/svg10.dtd">
<svg version="1.0" xmlns="http://www.w3.org/2000/svg"
 width="512.000000pt" height="512.000000pt" viewBox="0 0 512.000000 512.000000"
 preserveAspectRatio="xMidYMid meet">

<g transform="translate(0.000000,512.000000) scale(0.100000,-0.100000)"
fill="#000000" stroke="none">
<path d="M2330 5110 c-494 -48 -950 -230 -1350 -538 -195 -150 -448 -432 -594
-662 -63 -99 -186 -351 -230 -471 -49 -134 -102 -340 -128 -499 -31 -195 -31
-565 0 -760 45 -276 116 -498 237 -745 132 -269 269 -460 489 -681 221 -220
412 -357 681 -489 247 -121 469 -192 745 -237 195 -31 565 -31 760 0 276 45
498 116 745 237 269 132 460 269 681 489 220 221 357 412 489 681 88 179 132
296 180 476 63 240 78 371 78 649 0 278 -15 409 -78 649 -48 180 -92 297 -180
476 -132 269 -269 460 -489 681 -221 220 -412 357 -681 489 -246 121 -474 193
-740 235 -147 23 -475 34 -615 20z m508 -475 c707 -99 1309 -540 1614 -1183
137 -288 198 -564 198 -892 0 -191 -16 -329 -59 -506 -182 -741 -784 -1343
-1525 -1525 -177 -43 -315 -59 -506 -59 -191 0 -329 16 -506 59 -741 182
-1343 784 -1525 1525 -43 177 -59 315 -59 506 0 191 16 329 59 506 182 742
784 1344 1527 1525 67 16 164 36 215 43 131 19 432 20 567 1z"/>
<path d="M2444 4009 c-100 -38 -181 -148 -191 -258 -16 -179 126 -334 307
-334 241 0 389 264 262 467 -79 127 -237 179 -378 125z"/>
<path d="M2492 2935 c-63 -19 -111 -61 -138 -119 l-24 -51 0 -750 c0 -709 1
-752 19 -790 67 -144 255 -181 370 -72 18 18 42 50 52 72 18 38 19 81 19 790
l0 750 -24 51 c-28 59 -75 100 -142 120 -57 17 -76 17 -132 -1z"/>
</g>
</svg>
