<svg version="1.1" id="Layer_1" xmlns="http://www.w3.org/2000/svg" xmlns:xlink="http://www.w3.org/1999/xlink" x="0px" y="0px"
	 width="100%" viewBox="0 0 286 261" enable-background="new 0 0 286 261" xml:space="preserve">
<path fill="#F8FAFB" opacity="1.000000" stroke="none" 
	d="
M287.000000,94.000000 
	C287.000000,150.333328 287.000000,206.166672 287.000000,262.000000 
	C191.666672,262.000000 96.333336,262.000000 1.000000,262.000000 
	C1.000000,175.000000 1.000000,88.000000 1.000000,1.000000 
	C96.333336,1.000000 191.666672,1.000000 287.000000,1.000000 
	C287.000000,31.833334 287.000000,62.666668 287.000000,94.000000 
M74.918556,259.969513 
	C79.610596,259.923889 84.302628,259.878265 89.923050,259.970123 
	C96.280006,259.924286 102.636971,259.878479 109.922081,259.968842 
	C115.612656,259.924500 121.303223,259.880157 127.921532,259.970612 
	C133.279770,259.925751 138.638000,259.880890 144.918152,259.967316 
	C149.277527,259.923828 153.636887,259.880341 158.920319,259.968170 
	C162.573303,259.970398 166.235016,260.134125 169.877243,259.937286 
	C175.415497,259.637939 179.142349,255.674210 179.259659,250.280579 
	C179.382736,244.621552 175.650269,240.366791 169.939804,240.074738 
	C165.970505,239.871704 161.978271,240.117722 157.074600,240.037735 
	C152.715149,240.079819 148.355682,240.121887 143.069305,240.036789 
	C137.710800,240.079269 132.352280,240.121735 126.066330,240.038589 
	C120.375519,240.081512 114.684715,240.124435 108.065750,240.039734 
	C101.708725,240.082291 95.351707,240.124832 88.070663,240.039062 
	C83.378723,240.082108 78.686775,240.125168 73.076920,240.038116 
	C69.049454,240.081085 65.021996,240.124069 60.071270,240.035553 
	C55.379158,240.071487 50.687042,240.107422 45.283638,239.948135 
	C37.388577,237.584518 34.632565,233.276474 36.903938,225.457443 
	C39.296997,217.219513 42.330296,209.167542 45.614780,200.615921 
	C49.439240,194.481155 53.263699,188.346375 57.673946,181.863708 
	C62.954327,176.338013 68.234703,170.812317 74.114059,165.041183 
	C78.746857,161.705826 83.379662,158.370483 88.713776,154.916489 
	C93.148048,152.631622 97.582321,150.346771 102.769379,147.996307 
	C106.843689,146.581223 110.918007,145.166122 115.765732,143.748581 
	C120.175941,142.784790 124.586151,141.820999 129.849854,140.931076 
	C134.232910,140.565094 138.615982,140.199112 143.911224,139.965027 
	C148.609238,140.200562 153.307251,140.436096 158.805191,140.901535 
	C165.206772,142.260757 171.608368,143.619995 178.541626,145.446060 
	C182.089188,146.843582 185.660828,148.183380 189.179276,149.650726 
	C196.404739,152.664047 202.247650,151.158279 204.575668,145.606247 
	C207.090515,139.608719 204.434616,134.467056 197.026154,131.191910 
	C193.324493,129.555481 189.557526,128.066833 185.580246,126.411514 
	C189.028793,122.755554 192.071213,119.530144 195.699570,115.936066 
	C202.380096,108.322823 207.071838,99.596489 209.518494,89.805939 
	C215.292175,66.701920 210.949142,45.847996 194.826904,27.122438 
	C189.348053,22.679190 183.869217,18.235939 177.934601,13.246812 
	C171.620636,10.841896 165.306686,8.436979 158.356659,5.584649 
	C152.902756,5.133899 147.448837,4.683149 141.138016,4.122915 
	C135.066666,5.303283 128.995331,6.483651 122.165565,7.788384 
	C115.429031,11.519482 108.692490,15.250579 101.323647,19.203030 
	C96.476204,24.777517 91.628761,30.352005 86.222359,36.311237 
	C84.692375,39.207626 82.898018,41.996948 81.674728,45.017544 
	C72.826294,66.866531 73.921745,87.958763 86.952766,108.752449 
	C91.222603,113.534241 95.492432,118.316032 100.078346,123.647423 
	C101.115265,124.332771 102.152191,125.018120 103.406944,125.847435 
	C101.865768,126.873901 101.230469,127.297028 99.871819,127.814377 
	C95.580231,129.632980 91.288651,131.451584 86.331490,133.421432 
	C81.185287,136.529465 76.039085,139.637482 70.201843,142.892242 
	C65.048248,147.210815 59.894665,151.529388 54.134140,156.084869 
	C50.303890,160.415482 46.473640,164.746094 42.064964,169.497971 
	C38.335285,175.210373 34.605610,180.922775 30.319138,187.084885 
	C23.694115,198.176682 19.642458,210.249619 16.835835,222.775543 
	C13.846156,236.118423 19.229435,248.495010 31.604578,256.098663 
	C36.400951,257.340729 41.197323,258.582794 46.916805,259.971832 
	C51.609379,259.925537 56.301952,259.879242 61.912914,259.970612 
	C65.940208,259.924316 69.967506,259.878052 74.918556,259.969513 
M210.844986,222.553055 
	C213.732574,222.471939 214.367859,224.067596 214.328186,226.672073 
	C214.211594,234.330582 214.155502,241.996307 214.365555,249.651245 
	C214.501984,254.623383 217.061646,258.278564 221.958298,259.643951 
	C226.453430,260.897369 230.408707,259.349487 232.738098,255.392853 
	C234.014343,253.225052 234.357208,250.376816 234.630096,247.783752 
	C234.942139,244.818588 234.646500,241.794388 234.727051,238.798859 
	C234.864700,233.680298 233.174316,226.707642 235.822891,223.974945 
	C238.412933,221.302658 245.465637,222.963928 250.558609,222.706802 
	C255.039139,222.480621 259.518524,222.232132 264.729065,222.027786 
	C270.055542,219.771545 272.548981,216.420837 271.944550,211.647034 
	C271.358521,207.018631 269.037903,203.686035 263.168457,202.817108 
	C255.180847,202.641342 247.191742,202.297272 239.206299,202.367859 
	C235.734055,202.398560 234.545334,201.345490 234.642792,197.824692 
	C234.845474,190.501938 234.924301,183.153305 234.534012,175.843063 
	C234.157684,168.794479 229.907730,164.759338 224.032257,165.022308 
	C218.279205,165.279816 214.410294,169.836243 214.308807,176.735550 
	C214.208359,183.564880 214.079758,190.405579 214.370285,197.223953 
	C214.517822,200.686417 213.579697,202.582306 209.113464,202.454636 
	C201.622742,202.501450 194.109756,202.209503 186.648239,202.700348 
	C180.485611,203.105743 176.901749,207.316589 177.018936,212.723358 
	C177.131821,217.932678 180.629044,221.959213 186.595428,222.279434 
	C194.375244,222.696960 202.199707,222.282516 210.844986,222.553055 
z"/>
<path fill="#4FB2FE" opacity="1.000000" stroke="none" 
	d="
M210.005417,202.773941 
	C213.579697,202.582306 214.517822,200.686417 214.370285,197.223953 
	C214.079758,190.405579 214.208359,183.564880 214.308807,176.735550 
	C214.410294,169.836243 218.279205,165.279816 224.032257,165.022308 
	C229.907730,164.759338 234.157684,168.794479 234.534012,175.843063 
	C234.924301,183.153305 234.845474,190.501938 234.642792,197.824692 
	C234.545334,201.345490 235.734055,202.398560 239.206299,202.367859 
	C247.191742,202.297272 255.180847,202.641342 263.586975,203.379532 
	C264.003143,209.959137 264.000763,215.976318 263.998413,221.993500 
	C259.518524,222.232132 255.039139,222.480621 250.558609,222.706802 
	C245.465637,222.963928 238.412933,221.302658 235.822891,223.974945 
	C233.174316,226.707642 234.864700,233.680298 234.727051,238.798859 
	C234.646500,241.794388 234.942139,244.818588 234.630096,247.783752 
	C234.357208,250.376816 234.014343,253.225052 232.738098,255.392853 
	C230.408707,259.349487 226.453430,260.897369 221.958298,259.643951 
	C217.061646,258.278564 214.501984,254.623383 214.365555,249.651245 
	C214.155502,241.996307 214.211594,234.330582 214.328186,226.672073 
	C214.367859,224.067596 213.732574,222.471939 210.421631,221.984772 
	C210.000671,215.202301 210.003036,208.988113 210.005417,202.773941 
z"/>
<path fill="#44B7FE" opacity="1.000000" stroke="none" 
	d="
M195.113617,116.304741 
	C192.071213,119.530144 189.028793,122.755554 185.580246,126.411514 
	C189.557526,128.066833 193.324493,129.555481 197.026154,131.191910 
	C204.434616,134.467056 207.090515,139.608719 204.575668,145.606247 
	C202.247650,151.158279 196.404739,152.664047 189.179276,149.650726 
	C185.660828,148.183380 182.089188,146.843582 178.442749,144.831085 
	C178.562576,137.812668 179.033340,131.405060 178.928070,125.006943 
	C178.825745,118.788185 178.132828,112.579147 177.858902,106.099525 
	C189.563400,93.321960 194.341461,78.776497 190.910355,61.917694 
	C188.719406,51.152367 182.719254,42.532272 175.354111,34.918762 
	C176.168121,29.933357 176.501373,25.032938 177.038834,20.155018 
	C177.275101,18.010635 177.927139,15.912062 178.390381,13.792689 
	C183.869217,18.235939 189.348053,22.679190 194.934692,27.908367 
	C195.066193,57.897778 195.089905,87.101257 195.113617,116.304741 
z"/>
<path fill="#27D1FE" opacity="1.000000" stroke="none" 
	d="
M99.762268,123.097824 
	C95.492432,118.316032 91.222603,113.534241 87.282303,108.315613 
	C88.072845,106.914024 88.932915,105.950653 88.936279,104.984299 
	C89.012680,83.043144 89.026802,61.101479 88.901466,39.160770 
	C88.895279,38.078678 87.519409,37.004406 86.781326,35.926491 
	C91.628761,30.352005 96.476204,24.777517 102.037659,19.189110 
	C103.167877,20.995623 103.810211,22.797777 103.959129,24.639818 
	C104.463699,30.881212 104.793610,37.136726 105.088531,43.702663 
	C102.636673,48.942413 99.708847,53.679947 98.048286,58.826374 
	C93.647408,72.465630 96.514618,85.383003 102.967247,98.102142 
	C102.530090,105.122597 102.396210,111.749046 101.906792,118.349121 
	C101.786140,119.976082 100.508202,121.517227 99.762268,123.097824 
z"/>
<path fill="#47B5FE" opacity="1.000000" stroke="none" 
	d="
M195.406586,116.120407 
	C195.089905,87.101257 195.066193,57.897778 195.075256,28.203022 
	C210.949142,45.847996 215.292175,66.701920 209.518494,89.805939 
	C207.071838,99.596489 202.380096,108.322823 195.406586,116.120407 
z"/>
<path fill="#0CE9FE" opacity="1.000000" stroke="none" 
	d="
M45.083858,201.034332 
	C42.330296,209.167542 39.296997,217.219513 36.903938,225.457443 
	C34.632565,233.276474 37.388577,237.584518 45.640953,240.504242 
	C45.996742,247.315201 45.995220,253.570023 45.993698,259.824860 
	C41.197323,258.582794 36.400951,257.340729 31.378654,255.487747 
	C31.435255,252.770477 31.955151,250.665009 31.962955,248.557632 
	C32.028549,230.844833 32.051189,213.131393 31.949888,195.418930 
	C31.933132,192.489059 31.250723,189.563004 30.875931,186.635178 
	C34.605610,180.922775 38.335285,175.210373 42.443802,169.824585 
	C42.881908,176.292999 42.701679,182.449738 43.083469,188.571442 
	C43.344135,192.751068 44.389389,196.881760 45.083858,201.034332 
z"/>
<path fill="#08EEFE" opacity="1.000000" stroke="none" 
	d="
M30.597534,186.860031 
	C31.250723,189.563004 31.933132,192.489059 31.949888,195.418930 
	C32.051189,213.131393 32.028549,230.844833 31.962955,248.557632 
	C31.955151,250.665009 31.435255,252.770477 31.080589,255.265076 
	C19.229435,248.495010 13.846156,236.118423 16.835835,222.775543 
	C19.642458,210.249619 23.694115,198.176682 30.597534,186.860031 
z"/>
<path fill="#23D6FE" opacity="1.000000" stroke="none" 
	d="
M86.501846,36.118866 
	C87.519409,37.004406 88.895279,38.078678 88.901466,39.160770 
	C89.026802,61.101479 89.012680,83.043144 88.936279,104.984299 
	C88.932915,105.950653 88.072845,106.914024 87.200165,107.974838 
	C73.921745,87.958763 72.826294,66.866531 81.674728,45.017544 
	C82.898018,41.996948 84.692375,39.207626 86.501846,36.118866 
z"/>
<path fill="#45B6FE" opacity="1.000000" stroke="none" 
	d="
M209.559448,202.614288 
	C210.003036,208.988113 210.000671,215.202301 210.001617,221.821274 
	C202.199707,222.282516 194.375244,222.696960 186.595428,222.279434 
	C180.629044,221.959213 177.131821,217.932678 177.018936,212.723358 
	C176.901749,207.316589 180.485611,203.105743 186.648239,202.700348 
	C194.109756,202.209503 201.622742,202.501450 209.559448,202.614288 
z"/>
<path fill="#40BBFE" opacity="1.000000" stroke="none" 
	d="
M177.699249,106.365837 
	C178.132828,112.579147 178.825745,118.788185 178.928070,125.006943 
	C179.033340,131.405060 178.562576,137.812668 178.176910,144.597687 
	C171.608368,143.619995 165.206772,142.260757 158.477051,140.398163 
	C158.393646,133.746094 158.746170,127.597778 158.767639,121.448311 
	C158.770905,120.519302 157.231781,119.584900 156.720688,118.441284 
	C163.923264,114.274986 170.811264,110.320412 177.699249,106.365837 
z"/>
<path fill="#2CCDFE" opacity="1.000000" stroke="none" 
	d="
M99.920311,123.372620 
	C100.508202,121.517227 101.786140,119.976082 101.906792,118.349121 
	C102.396210,111.749046 102.530090,105.122597 103.245316,98.303108 
	C108.011833,102.625427 112.328163,107.150520 116.264832,111.932678 
	C115.590240,113.935989 115.058273,115.679810 115.040344,117.428894 
	C114.950432,126.202187 114.995003,134.976852 114.992325,143.751038 
	C110.918007,145.166122 106.843689,146.581223 102.387970,147.556152 
	C102.004478,143.304688 102.175034,139.482742 101.941551,135.685654 
	C101.777206,133.013000 101.063545,130.374115 100.595169,127.720154 
	C101.230469,127.297028 101.865768,126.873901 103.406944,125.847435 
	C102.152191,125.018120 101.115265,124.332771 99.920311,123.372620 
z"/>
<path fill="#2ECCFE" opacity="1.000000" stroke="none" 
	d="
M105.190262,43.386845 
	C104.793610,37.136726 104.463699,30.881212 103.959129,24.639818 
	C103.810211,22.797777 103.167877,20.995623 102.353813,19.078432 
	C108.692490,15.250579 115.429031,11.519482 122.566742,8.222223 
	C123.318214,15.127849 123.668526,21.599634 123.800339,28.328539 
	C117.451317,33.519386 111.320786,38.453114 105.190262,43.386845 
z"/>
<path fill="#18DEFE" opacity="1.000000" stroke="none" 
	d="
M54.741074,155.847961 
	C59.894665,151.529388 65.048248,147.210815 70.718460,143.222610 
	C71.490273,148.990967 71.641884,154.436920 72.058304,159.862534 
	C72.199104,161.697021 73.010269,163.480072 73.515076,165.286621 
	C68.234703,170.812317 62.954327,176.338013 57.309555,181.608215 
	C56.630203,174.676025 56.385708,167.994736 55.954559,161.325546 
	C55.835327,159.481247 55.160812,157.672836 54.741074,155.847961 
z"/>
<path fill="#12E4FE" opacity="1.000000" stroke="none" 
	d="
M54.437607,155.966415 
	C55.160812,157.672836 55.835327,159.481247 55.954559,161.325546 
	C56.385708,167.994736 56.630203,174.676025 57.016659,181.782166 
	C53.263699,188.346375 49.439240,194.481155 45.349319,200.825134 
	C44.389389,196.881760 43.344135,192.751068 43.083469,188.571442 
	C42.701679,182.449738 42.881908,176.292999 42.733013,169.613953 
	C46.473640,164.746094 50.303890,160.415482 54.437607,155.966415 
z"/>
<path fill="#34C5FE" opacity="1.000000" stroke="none" 
	d="
M124.018829,28.071419 
	C123.668526,21.599634 123.318214,15.127849 122.945946,8.160041 
	C128.995331,6.483651 135.066666,5.303283 141.635803,4.573997 
	C142.420425,11.300858 142.707260,17.576635 142.575562,23.927189 
	C136.110947,25.358448 130.064896,26.714933 124.018829,28.071419 
z"/>
<path fill="#40BBFE" opacity="1.000000" stroke="none" 
	d="
M178.162506,13.519751 
	C177.927139,15.912062 177.275101,18.010635 177.038834,20.155018 
	C176.501373,25.032938 176.168121,29.933357 175.036469,34.798775 
	C169.206772,31.877914 164.092499,28.982910 158.984879,25.614044 
	C158.991928,18.770811 158.992325,12.401437 158.992722,6.032063 
	C165.306686,8.436979 171.620636,10.841896 178.162506,13.519751 
z"/>
<path fill="#27CFFE" opacity="1.000000" stroke="none" 
	d="
M108.993927,259.832642 
	C102.636971,259.878479 96.280006,259.924286 89.460526,259.444641 
	C88.996887,252.668549 88.995781,246.417969 88.994682,240.167389 
	C95.351707,240.124832 101.708725,240.082291 108.531776,240.560165 
	C108.996513,247.331284 108.995216,253.581955 108.993927,259.832642 
z"/>
<path fill="#30C9FE" opacity="1.000000" stroke="none" 
	d="
M115.379028,143.749817 
	C114.995003,134.976852 114.950432,126.202187 115.040344,117.428894 
	C115.058273,115.679810 115.590240,113.935989 116.567039,112.045891 
	C121.167564,113.902466 125.086235,115.902901 129.003448,118.378006 
	C129.000122,126.187523 128.998245,133.522369 128.996368,140.857208 
	C124.586151,141.820999 120.175941,142.784790 115.379028,143.749817 
z"/>
<path fill="#40BBFE" opacity="1.000000" stroke="none" 
	d="
M157.996277,240.163132 
	C161.978271,240.117722 165.970505,239.871704 169.939804,240.074738 
	C175.650269,240.366791 179.382736,244.621552 179.259659,250.280579 
	C179.142349,255.674210 175.415497,259.637939 169.877243,259.937286 
	C166.235016,260.134125 162.573303,259.970398 158.459564,259.445862 
	C157.997955,252.670105 157.997116,246.416611 157.996277,240.163132 
z"/>
<path fill="#21D7FE" opacity="1.000000" stroke="none" 
	d="
M73.814560,165.163910 
	C73.010269,163.480072 72.199104,161.697021 72.058304,159.862534 
	C71.641884,154.436920 71.490273,148.990967 71.063980,143.149231 
	C76.039085,139.637482 81.185287,136.529465 86.664497,133.795013 
	C87.335823,141.124100 87.674141,148.079620 88.012466,155.035141 
	C83.379662,158.370483 78.746857,161.705826 73.814560,165.163910 
z"/>
<path fill="#2EC9FE" opacity="1.000000" stroke="none" 
	d="
M109.458008,259.900757 
	C108.995216,253.581955 108.996513,247.331284 108.995850,240.623978 
	C114.684715,240.124435 120.375519,240.081512 126.532181,240.558136 
	C126.996613,247.330399 126.995209,253.583115 126.993797,259.835815 
	C121.303223,259.880157 115.612656,259.924500 109.458008,259.900757 
z"/>
<path fill="#35C4FE" opacity="1.000000" stroke="none" 
	d="
M127.457664,259.903198 
	C126.995209,253.583115 126.996613,247.330399 126.995895,240.620956 
	C132.352280,240.121735 137.710800,240.079269 143.534027,240.557053 
	C143.997925,247.330215 143.997086,253.583130 143.996246,259.836029 
	C138.638000,259.880890 133.279770,259.925751 127.457664,259.903198 
z"/>
<path fill="#27D1FE" opacity="1.000000" stroke="none" 
	d="
M88.363113,154.975815 
	C87.674141,148.079620 87.335823,141.124100 86.997284,133.719391 
	C91.288651,131.451584 95.580231,129.632980 100.233490,127.767258 
	C101.063545,130.374115 101.777206,133.013000 101.941551,135.685654 
	C102.175034,139.482742 102.004478,143.304688 102.011581,147.588959 
	C97.582321,150.346771 93.148048,152.631622 88.363113,154.975815 
z"/>
<path fill="#3CC0FE" opacity="1.000000" stroke="none" 
	d="
M158.674683,5.808356 
	C158.992325,12.401437 158.991928,18.770811 158.572235,25.597034 
	C153.099976,25.320059 148.047028,24.586237 142.994080,23.852413 
	C142.707260,17.576635 142.420425,11.300858 142.064270,4.628739 
	C147.448837,4.683149 152.902756,5.133899 158.674683,5.808356 
z"/>
<path fill="#35C4FE" opacity="1.000000" stroke="none" 
	d="
M129.423111,140.894135 
	C128.998245,133.522369 129.000122,126.187523 129.413666,118.388596 
	C134.549301,118.662277 139.273315,119.400032 143.998199,120.597153 
	C143.665726,127.315392 143.332382,133.574265 142.999039,139.833130 
	C138.615982,140.199112 134.232910,140.565094 129.423111,140.894135 
z"/>
<path fill="#3ABFFE" opacity="1.000000" stroke="none" 
	d="
M143.455139,139.899078 
	C143.332382,133.574265 143.665726,127.315392 144.430954,120.529144 
	C148.710587,119.552170 152.558350,119.102577 156.406097,118.652992 
	C157.231781,119.584900 158.770905,120.519302 158.767639,121.448311 
	C158.746170,127.597778 158.393646,133.746094 158.077087,140.283203 
	C153.307251,140.436096 148.609238,140.200562 143.455139,139.899078 
z"/>
<path fill="#13E2FE" opacity="1.000000" stroke="none" 
	d="
M46.455254,259.898346 
	C45.995220,253.570023 45.996742,247.315201 45.996597,240.601868 
	C50.687042,240.107422 55.379158,240.071487 60.534569,240.558212 
	C60.996754,247.331558 60.995640,253.582260 60.994526,259.832947 
	C56.301952,259.879242 51.609379,259.925537 46.455254,259.898346 
z"/>
<path fill="#1FD6FE" opacity="1.000000" stroke="none" 
	d="
M88.532669,240.103226 
	C88.995781,246.417969 88.996887,252.668549 88.996330,259.375885 
	C84.302628,259.878265 79.610596,259.923889 74.458145,259.443909 
	C73.996773,252.668259 73.995804,246.418228 73.994835,240.168213 
	C78.686775,240.125168 83.378723,240.082108 88.532669,240.103226 
z"/>
<path fill="#3ABFFE" opacity="1.000000" stroke="none" 
	d="
M144.457199,259.901672 
	C143.997086,253.583130 143.997925,247.330215 143.997498,240.620636 
	C148.355682,240.121887 152.715149,240.079819 157.535431,240.100433 
	C157.997116,246.416611 157.997955,252.670105 157.997528,259.380249 
	C153.636887,259.880341 149.277527,259.923828 144.457199,259.901672 
z"/>
<path fill="#18DEFE" opacity="1.000000" stroke="none" 
	d="
M73.535873,240.103165 
	C73.995804,246.418228 73.996773,252.668259 73.996277,259.375031 
	C69.967506,259.878052 65.940208,259.924316 61.453720,259.901794 
	C60.995640,253.582260 60.996754,247.331558 60.996201,240.623962 
	C65.021996,240.124069 69.049454,240.081085 73.535873,240.103165 
z"/>
<path fill="#5EB5FE" opacity="1.000000" stroke="none" 
	d="
M264.363739,222.010651 
	C264.000763,215.976318 264.003143,209.959137 264.001953,203.474228 
	C269.037903,203.686035 271.358521,207.018631 271.944550,211.647034 
	C272.548981,216.420837 270.055542,219.771545 264.363739,222.010651 
z"/>
<path fill="#F7FAFB" opacity="1.000000" stroke="none" 
	d="
M156.720688,118.441284 
	C152.558350,119.102577 148.710587,119.552170 144.430084,120.069771 
	C139.273315,119.400032 134.549301,118.662277 129.415100,117.913925 
	C125.086235,115.902901 121.167564,113.902466 116.946693,111.788826 
	C112.328163,107.150520 108.011833,102.625427 103.417450,97.899368 
	C96.514618,85.383003 93.647408,72.465630 98.048286,58.826374 
	C99.708847,53.679947 102.636673,48.942413 105.088531,43.702663 
	C111.320786,38.453114 117.451317,33.519386 123.800339,28.328537 
	C130.064896,26.714933 136.110947,25.358448 142.575546,23.927189 
	C148.047028,24.586237 153.099976,25.320059 158.565567,26.070894 
	C164.092499,28.982910 169.206772,31.877914 174.638702,34.892906 
	C182.719254,42.532272 188.719406,51.152367 190.910355,61.917694 
	C194.341461,78.776497 189.563400,93.321960 177.858902,106.099525 
	C170.811264,110.320412 163.923264,114.274986 156.720688,118.441284 
z"/>
</svg>