<svg version="1.1" id="Layer_1" xmlns="http://www.w3.org/2000/svg" xmlns:xlink="http://www.w3.org/1999/xlink" x="0px" y="0px"
	 width="50px" height="50px" viewBox="0 0 284 300" enable-background="new 0 0 284 300" xml:space="preserve">
<path fill="#F7F9FB" opacity="1.000000" stroke="none" 
	d="
M158.000000,301.000000 
	C105.333336,301.000000 53.166679,301.000000 1.000014,301.000000 
	C1.000009,201.000015 1.000009,101.000038 1.000005,1.000041 
	C95.666634,1.000027 190.333267,1.000027 284.999939,1.000014 
	C284.999939,100.999962 284.999939,200.999924 284.999969,300.999939 
	C242.833328,301.000000 200.666672,301.000000 158.000000,301.000000 
M100.395348,66.479332 
	C98.178421,68.224686 95.585281,69.672943 93.884865,71.826187 
	C92.855156,73.130119 93.208282,75.526085 92.940132,77.431419 
	C94.858665,77.598831 97.116081,78.482735 98.619186,77.771805 
	C101.097878,76.599449 103.089027,74.396278 105.820892,72.123466 
	C110.265358,69.534203 114.709824,66.944939 119.878624,64.167313 
	C125.253281,62.115124 130.627930,60.062931 136.830231,58.031475 
	C143.219543,56.990009 149.608841,55.948540 156.919098,55.032646 
	C166.280060,55.976910 175.641037,56.921173 185.674973,58.171257 
	C206.650558,64.162445 223.986618,75.553818 237.358780,92.884430 
	C245.928726,103.991287 251.177170,116.649162 254.917099,130.871414 
	C255.320023,142.245804 255.722946,153.620193 255.899048,165.753571 
	C253.425217,174.120377 250.951385,182.487167 248.078568,191.358398 
	C244.695526,197.179428 241.312500,203.000458 237.350861,209.174179 
	C232.879303,214.054626 228.407730,218.935089 223.299255,224.074570 
	C216.872986,228.411942 210.446701,232.749313 203.300232,237.167404 
	C195.866943,239.818420 188.433655,242.469421 180.175308,245.075150 
	C172.451096,245.758545 164.726898,246.441956 156.173782,246.958984 
	C142.116135,245.947525 128.721725,242.542343 116.221039,235.902008 
	C113.653648,234.538208 110.633606,233.813904 109.553574,237.067810 
	C109.059883,238.555191 110.763725,241.921417 112.358963,242.774033 
	C127.516708,250.875732 143.685486,255.266052 161.906479,254.962616 
	C169.603592,253.947937 177.300690,252.933243 185.783066,251.983994 
	C192.851715,249.310379 199.920364,246.636749 207.693726,243.877411 
	C208.458145,243.321915 209.208618,242.745926 209.989197,242.214157 
	C216.408508,237.841019 222.833420,233.476105 229.864700,228.879272 
	C234.250824,223.919769 238.636948,218.960281 243.372147,213.427155 
	C247.229279,207.276291 251.086411,201.125443 255.385193,194.441040 
	C258.040802,185.614151 260.696411,176.787262 263.736969,167.179886 
	C263.697571,156.447830 263.658173,145.715790 263.671997,134.220123 
	C262.889832,130.730072 262.287933,127.187965 261.297577,123.758026 
	C251.401871,89.486031 229.628494,66.025284 196.427567,53.267796 
	C191.577972,51.404331 186.184540,50.956158 180.683563,49.184963 
	C171.459167,48.603592 162.234756,48.022221 152.189926,47.314625 
	C145.794388,48.574509 139.398865,49.834393 132.236420,51.067478 
	C126.772408,53.215267 121.308388,55.363056 115.138771,57.744453 
	C110.429688,60.586967 105.720596,63.429482 100.395348,66.479332 
M151.005051,152.067322 
	C147.527313,155.647690 144.049591,159.228058 139.889191,163.071518 
	C136.699524,160.468384 133.302872,158.078461 130.359924,155.221207 
	C122.265953,147.362900 122.341217,147.285385 114.305092,156.107925 
	C112.767464,157.633362 111.298653,159.236801 109.677422,160.667496 
	C106.615425,163.369629 106.786781,165.885864 109.627289,168.689148 
	C118.167831,177.117783 126.635574,185.620453 135.097641,194.128159 
	C137.724426,196.769104 140.272415,196.858231 142.860382,194.167389 
	C145.394852,191.532181 147.900909,188.869690 150.994629,185.939224 
	C156.134613,180.700699 161.274597,175.462189 166.988770,169.939209 
	C172.138885,164.692627 177.289001,159.446045 183.015610,153.915222 
	C188.415039,148.418594 193.814453,142.921967 199.815567,137.101974 
	C204.059219,132.895874 208.278412,128.664719 212.555466,124.492874 
	C215.222092,121.891853 215.293747,119.471092 212.528290,116.848785 
	C209.277313,113.766144 206.123123,110.576965 203.017410,107.347031 
	C200.567444,104.799057 198.204849,104.716751 195.750534,107.240013 
	C191.358170,111.755722 186.973053,116.278503 182.005234,121.068764 
	C176.533493,126.644623 171.061752,132.220490 165.010529,138.068237 
	C160.534897,142.644119 156.059265,147.219986 151.005051,152.067322 
M45.026855,171.930695 
	C45.073112,180.287064 45.119370,188.643433 45.031845,197.928452 
	C45.076565,205.284790 45.121288,212.641113 45.022419,220.847504 
	C44.042904,225.026260 40.749161,222.607819 38.586990,222.880966 
	C35.664070,223.250214 32.738327,223.791870 33.328327,227.138885 
	C33.600021,228.680176 36.574051,230.604660 38.497784,230.824646 
	C43.175186,231.359528 47.955009,230.998734 52.999027,230.998734 
	C52.999027,234.131592 52.977371,236.594574 53.004906,239.057022 
	C53.034523,241.705933 53.110279,244.354309 53.032158,247.930954 
	C53.032158,254.179398 53.032158,260.427826 53.032158,267.005127 
	C48.899281,267.005127 45.362724,266.581848 42.005966,267.175385 
	C40.201763,267.494415 37.594120,269.349976 37.307026,270.879730 
	C36.741192,273.894653 39.275661,275.015015 42.146683,275.001068 
	C55.763336,274.934906 69.380081,274.887848 83.922325,274.969269 
	C87.735229,274.979431 91.548798,274.949646 95.360832,275.012543 
	C98.336403,275.061615 101.232231,274.240479 100.667603,270.887482 
	C100.408401,269.348236 97.481232,267.532867 95.517944,267.168640 
	C92.214157,266.555756 88.714127,267.000732 84.834320,267.000732 
	C84.834320,261.224548 84.834320,256.111511 84.967468,250.070343 
	C84.978088,244.861404 84.865204,239.647110 85.090157,234.447449 
	C85.143341,233.218262 86.332283,232.038193 87.923958,230.970764 
	C91.903404,230.980331 95.951279,231.423615 99.832619,230.811295 
	C101.694565,230.517563 103.241554,228.227341 104.931160,226.841278 
	C103.302650,225.561279 101.847534,223.731262 99.999191,223.148560 
	C97.954796,222.504013 95.550423,223.001282 92.837845,223.001282 
	C92.837845,215.879242 92.837845,209.438324 92.970200,202.068634 
	C92.924965,191.044312 92.879730,180.019974 92.966248,168.067078 
	C92.921700,156.710068 92.877144,145.353058 92.966469,133.067749 
	C92.922462,123.710503 92.878464,114.353256 92.969337,104.071671 
	C92.979767,101.244225 92.997955,98.416771 92.999146,95.589325 
	C93.002487,87.670258 92.999718,87.670258 85.107773,86.495079 
	C84.497169,76.931908 87.984200,65.094711 73.191948,62.699131 
	C73.059883,60.945599 72.948677,59.469131 72.971413,57.065113 
	C72.981873,48.740723 72.983727,40.416306 73.007492,32.091953 
	C73.015747,29.202499 71.839722,26.690382 68.829193,27.294294 
	C67.297447,27.601559 65.255867,30.321657 65.172592,32.035023 
	C64.817696,39.337353 65.108025,46.671036 65.026253,54.885536 
	C65.026253,57.471027 65.026253,60.056519 65.026253,61.228268 
	C61.299122,63.884403 58.499454,65.879585 55.118324,68.309357 
	C54.412617,73.225372 53.809093,78.159599 52.938160,83.046165 
	C52.681080,84.488564 51.668602,85.796318 50.211586,87.030434 
	C46.300663,86.839668 44.918861,88.942245 44.982449,92.581268 
	C45.101364,99.387085 45.111412,106.194801 45.030003,113.929840 
	C45.073318,123.284859 45.116638,132.639877 45.020840,142.923889 
	C45.066536,152.283112 45.112232,161.642334 45.026855,171.930695 
z"/>
<path fill="#2666F9" opacity="1.000000" stroke="none" 
	d="
M181.042755,49.853111 
	C186.184540,50.956158 191.577972,51.404331 196.427567,53.267796 
	C229.628494,66.025284 251.401871,89.486031 261.297577,123.758026 
	C262.287933,127.187965 262.889832,130.730072 263.320923,134.549408 
	C260.298553,133.257401 257.627258,131.636124 254.955978,130.014832 
	C251.177170,116.649162 245.928726,103.991287 237.358780,92.884430 
	C223.986618,75.553818 206.650558,64.162445 185.293243,57.677822 
	C183.621933,54.740627 182.332352,52.296867 181.042755,49.853111 
z"/>
<path fill="#8532F0" opacity="1.000000" stroke="none" 
	d="
M86.998772,230.835541 
	C86.332283,232.038193 85.143341,233.218262 85.090157,234.447449 
	C84.865204,239.647110 84.978088,244.861404 84.549767,250.529221 
	C81.809731,249.658432 79.487389,248.328781 77.098328,246.535767 
	C77.031609,241.150436 77.031609,236.228470 77.031609,230.521469 
	C71.134796,231.057892 65.984772,231.526367 60.492630,231.951599 
	C57.875477,230.130112 55.587978,228.367523 53.328625,226.569565 
	C50.595314,224.394501 47.885818,222.189499 45.166016,219.997452 
	C45.121288,212.641113 45.076565,205.284790 45.433853,197.508545 
	C48.168999,198.391769 50.502144,199.694901 52.902260,201.462708 
	C52.969234,208.846207 52.969234,215.765015 52.969234,223.163559 
	C63.434322,223.163559 73.216797,223.163559 83.045029,223.500000 
	C84.393456,226.169479 85.696114,228.502518 86.998772,230.835541 
z"/>
<path fill="#514CF5" opacity="1.000000" stroke="none" 
	d="
M55.699783,67.874763 
	C58.499454,65.879585 61.299122,63.884403 65.026253,61.228268 
	C65.026253,60.056519 65.026253,57.471027 65.446655,54.446602 
	C68.190536,55.336002 70.514008,56.664330 72.837479,57.992661 
	C72.948677,59.469131 73.059883,60.945599 73.191948,62.699131 
	C87.984200,65.094711 84.497169,76.931908 85.107773,86.495079 
	C92.999718,87.670258 93.002487,87.670258 92.999146,95.589325 
	C92.997955,98.416771 92.979767,101.244225 92.566742,104.490204 
	C89.831100,103.605125 87.498055,102.301506 85.098030,100.576775 
	C84.588341,98.059402 86.434792,94.659393 81.956009,94.501068 
	C80.258835,91.738731 78.606995,89.311287 76.973724,86.427658 
	C76.994370,83.503349 77.348267,80.969345 76.901878,78.585175 
	C76.433502,76.083534 75.864151,72.913811 74.139069,71.497856 
	C71.644600,69.450378 62.986595,71.214523 60.962929,72.922531 
	C59.113834,71.027962 57.406807,69.451363 55.699783,67.874763 
z"/>
<path fill="#7C38F0" opacity="1.000000" stroke="none" 
	d="
M87.461365,230.903152 
	C85.696114,228.502518 84.393456,226.169479 83.466629,223.400497 
	C84.396919,217.229660 84.951363,211.494797 85.385986,206.999283 
	C78.462387,206.999283 72.223457,207.269424 66.035713,206.825745 
	C64.301712,206.701431 61.608372,204.698059 61.301613,203.166702 
	C60.699951,200.163254 63.216446,198.836334 66.089806,199.026443 
	C72.110588,199.424789 78.120094,199.993591 84.140915,200.391251 
	C84.449127,200.411621 84.819946,199.484222 85.514511,199.004410 
	C88.190887,200.339630 90.514366,201.668518 92.837845,202.997406 
	C92.837845,209.438324 92.837845,215.879242 92.837845,223.001282 
	C95.550423,223.001282 97.954796,222.504013 99.999191,223.148560 
	C101.847534,223.731262 103.302650,225.561279 104.931168,226.841278 
	C103.241554,228.227341 101.694565,230.517563 99.832619,230.811295 
	C95.951279,231.423615 91.903404,230.980331 87.461365,230.903152 
z"/>
<path fill="#6446F3" opacity="1.000000" stroke="none" 
	d="
M150.419434,186.219177 
	C147.900909,188.869690 145.394852,191.532181 142.860382,194.167389 
	C140.272415,196.858231 137.724426,196.769104 135.097641,194.128159 
	C126.635574,185.620453 118.167831,177.117783 109.627289,168.689148 
	C106.786781,165.885864 106.615425,163.369629 109.677422,160.667496 
	C111.298653,159.236801 112.767464,157.633362 114.765709,156.287506 
	C116.645157,158.272552 118.063988,160.078049 119.294052,162.161270 
	C118.915985,163.668045 118.108101,165.491516 118.631256,166.035919 
	C125.224281,172.896759 132.009384,179.573013 138.831619,186.382523 
	C140.792282,184.721817 142.398834,183.361053 144.351410,182.036224 
	C146.604767,183.454498 148.512100,184.836838 150.419434,186.219177 
z"/>
<path fill="#942BEE" opacity="1.000000" stroke="none" 
	d="
M82.996796,274.833984 
	C69.380081,274.887848 55.763336,274.934906 42.146683,275.001068 
	C39.275661,275.015015 36.741192,273.894653 37.307026,270.879730 
	C37.594120,269.349976 40.201763,267.494415 42.005966,267.175385 
	C45.362724,266.581848 48.899281,267.005127 53.032158,267.005127 
	C53.032158,260.427826 53.032158,254.179398 53.436546,247.509216 
	C56.172226,248.391907 58.503513,249.696350 60.901829,251.464142 
	C60.968857,256.838348 60.968857,261.749207 60.968857,266.884857 
	C66.737976,266.884857 71.847084,266.884857 77.098511,267.192749 
	C79.159492,269.945099 81.078140,272.389557 82.996796,274.833984 
z"/>
<path fill="#713DF2" opacity="1.000000" stroke="none" 
	d="
M92.904022,202.533020 
	C90.514366,201.668518 88.190887,200.339630 85.448593,198.557449 
	C85.008690,195.102127 84.987625,192.100067 84.978279,188.677826 
	C84.981247,187.136871 84.972488,186.016113 84.964523,184.444611 
	C84.965332,180.554733 84.965332,177.115601 84.965332,174.803604 
	C77.743179,174.803604 70.857887,174.954178 63.993771,174.640808 
	C62.967216,174.593948 61.172726,172.283859 61.283482,171.175659 
	C61.426197,169.747650 63.073734,167.374466 64.173538,167.316620 
	C70.977463,166.958679 77.809593,167.136719 84.901344,167.136719 
	C84.917854,166.939911 85.041283,165.468307 85.496964,164.041931 
	C88.164314,165.723312 90.499405,167.359482 92.834496,168.995651 
	C92.879730,180.019974 92.924965,191.044312 92.904022,202.533020 
z"/>
<path fill="#385AF7" opacity="1.000000" stroke="none" 
	d="
M182.584900,120.798325 
	C186.973053,116.278503 191.358170,111.755722 195.750534,107.240013 
	C198.204849,104.716751 200.567444,104.799057 203.017410,107.347031 
	C206.123123,110.576965 209.277313,113.766144 212.528290,116.848785 
	C215.293747,119.471092 215.222092,121.891853 212.555466,124.492874 
	C208.278412,128.664719 204.059219,132.895874 199.363678,136.929321 
	C197.608322,134.840363 196.304840,132.924042 195.135498,130.700943 
	C198.809311,127.527122 202.348999,124.660072 205.888687,121.793022 
	C205.354874,121.303619 204.821045,120.814217 204.287231,120.324814 
	C202.794998,118.609413 201.302765,116.894012 199.704163,115.056328 
	C195.782700,118.624428 192.284027,121.807823 188.453430,124.945122 
	C186.275986,123.532120 184.430435,122.165222 182.584900,120.798325 
z"/>
<path fill="#793DF1" opacity="1.000000" stroke="none" 
	d="
M161.002304,254.839218 
	C143.685486,255.266052 127.516708,250.875732 112.358963,242.774033 
	C110.763725,241.921417 109.059883,238.555191 109.553574,237.067810 
	C110.633606,233.813904 113.653648,234.538208 116.221039,235.902008 
	C128.721725,242.542343 142.116135,245.947525 156.592285,247.396576 
	C158.341278,250.169189 159.671799,252.504196 161.002304,254.839218 
z"/>
<path fill="#5848F4" opacity="1.000000" stroke="none" 
	d="
M55.409054,68.092056 
	C57.406807,69.451363 59.113834,71.027962 60.949074,73.370888 
	C61.077293,78.340706 61.077293,82.544205 61.077293,86.781822 
	C62.343021,86.887695 62.986187,86.990562 63.628826,86.987358 
	C68.070999,86.965218 72.513054,86.920982 76.955147,86.883842 
	C78.606995,89.311287 80.258835,91.738731 81.491638,94.569717 
	C72.381958,94.927071 63.691315,94.880890 54.994385,94.482147 
	C53.659500,91.808319 52.330898,89.487045 51.002296,87.165771 
	C51.668602,85.796318 52.681080,84.488564 52.938160,83.046165 
	C53.809093,78.159599 54.412617,73.225372 55.409054,68.092056 
z"/>
<path fill="#8E2FEF" opacity="1.000000" stroke="none" 
	d="
M60.834801,251.000809 
	C58.503513,249.696350 56.172226,248.391907 53.503422,247.045197 
	C53.110279,244.354309 53.034523,241.705933 53.004906,239.057022 
	C52.977371,236.594574 52.999027,234.131592 52.999027,230.998734 
	C47.955009,230.998734 43.175186,231.359528 38.497784,230.824646 
	C36.574051,230.604660 33.600021,228.680176 33.328327,227.138885 
	C32.738327,223.791870 35.664070,223.250214 38.586990,222.880966 
	C40.749161,222.607819 44.042904,225.026260 45.094215,220.422485 
	C47.885818,222.189499 50.595314,224.394501 53.328625,226.569565 
	C55.587978,228.367523 57.875477,230.130112 60.560741,232.415970 
	C60.925587,238.949326 60.880196,244.975067 60.834801,251.000809 
z"/>
<path fill="#5E4AF4" opacity="1.000000" stroke="none" 
	d="
M119.482819,161.883530 
	C118.063988,160.078049 116.645157,158.272552 115.065430,156.128601 
	C122.341217,147.285385 122.265953,147.362900 130.359924,155.221207 
	C133.302872,158.078461 136.699524,160.468384 140.568024,163.086151 
	C143.167053,164.401398 145.087234,165.702026 146.869690,167.308380 
	C145.924393,168.433670 145.123611,169.260040 144.308167,170.071686 
	C139.452377,174.904922 138.546310,174.895889 133.580612,169.953217 
	C130.783218,167.168793 127.905022,164.458298 125.229134,161.561264 
	C123.051720,159.203918 121.243614,158.981491 119.482819,161.883530 
z"/>
<path fill="#8E2FEF" opacity="1.000000" stroke="none" 
	d="
M83.459564,274.901611 
	C81.078140,272.389557 79.159492,269.945099 77.115723,266.732544 
	C77.048752,259.642639 77.106903,253.320877 77.165054,246.999115 
	C79.487389,248.328781 81.809731,249.658432 84.483192,250.993286 
	C84.834320,256.111511 84.834320,261.224548 84.834320,267.000732 
	C88.714127,267.000732 92.214157,266.555756 95.517944,267.168640 
	C97.481232,267.532867 100.408401,269.348236 100.667603,270.887482 
	C101.232231,274.240479 98.336403,275.061615 95.360832,275.012543 
	C91.548798,274.949646 87.735229,274.979431 83.459564,274.901611 
z"/>
<path fill="#3060F8" opacity="1.000000" stroke="none" 
	d="
M254.936539,130.443115 
	C257.627258,131.636124 260.298553,133.257401 263.294312,134.931213 
	C263.658173,145.715790 263.697571,156.447830 263.221588,167.568634 
	C260.512756,166.969788 258.319305,165.982193 256.125854,164.994583 
	C255.722946,153.620193 255.320023,142.245804 254.936539,130.443115 
z"/>
<path fill="#6441F3" opacity="1.000000" stroke="none" 
	d="
M92.900375,168.531372 
	C90.499405,167.359482 88.164314,165.723312 85.430939,163.577545 
	C85.077431,152.044159 85.122192,141.020370 85.501823,130.042816 
	C88.168655,131.391373 90.500618,132.693710 92.832588,133.996048 
	C92.877144,145.353058 92.921700,156.710068 92.900375,168.531372 
z"/>
<path fill="#3060F8" opacity="1.000000" stroke="none" 
	d="
M180.863159,49.519035 
	C182.332352,52.296867 183.621933,54.740627 184.956757,57.524910 
	C175.641037,56.921173 166.280060,55.976910 156.415848,54.625565 
	C154.945175,51.959270 153.977768,49.700062 153.010361,47.440849 
	C162.234756,48.022221 171.459167,48.603592 180.863159,49.519035 
z"/>
<path fill="#5848F4" opacity="1.000000" stroke="none" 
	d="
M92.899529,133.531891 
	C90.500618,132.693710 88.168655,131.391373 85.434723,129.578629 
	C85.076836,119.711441 85.120918,110.354668 85.165001,100.997887 
	C87.498055,102.301506 89.831100,103.605125 92.499298,104.952377 
	C92.878464,114.353256 92.922462,123.710503 92.899529,133.531891 
z"/>
<path fill="#6B3EF2" opacity="1.000000" stroke="none" 
	d="
M45.159958,141.994904 
	C45.116638,132.639877 45.073318,123.284859 45.435829,113.508606 
	C48.172474,114.391533 50.503292,115.695709 52.902676,117.464127 
	C52.927769,127.283981 52.884296,136.639587 52.487682,145.991425 
	C49.809677,144.656738 47.484818,143.325821 45.159958,141.994904 
z"/>
<path fill="#793DF1" opacity="1.000000" stroke="none" 
	d="
M45.090401,142.459396 
	C47.484818,143.325821 49.809677,144.656738 52.557392,146.455872 
	C52.934479,156.283081 52.888714,165.642059 52.489738,174.994720 
	C49.810329,173.659454 47.484131,172.330505 45.157928,171.001556 
	C45.112232,161.642334 45.066536,152.283112 45.090401,142.459396 
z"/>
<path fill="#3D5CF7" opacity="1.000000" stroke="none" 
	d="
M256.012451,165.374084 
	C258.319305,165.982193 260.512756,166.969788 263.029114,167.958878 
	C260.696411,176.787262 258.040802,185.614151 254.862885,194.554794 
	C252.386246,193.397034 250.431900,192.125504 248.477554,190.853973 
	C250.951385,182.487167 253.425217,174.120377 256.012451,165.374084 
z"/>
<path fill="#4555F6" opacity="1.000000" stroke="none" 
	d="
M72.904449,57.528885 
	C70.514008,56.664330 68.190536,55.336002 65.514969,54.000473 
	C65.108025,46.671036 64.817696,39.337353 65.172592,32.035023 
	C65.255867,30.321657 67.297447,27.601559 68.829193,27.294294 
	C71.839722,26.690382 73.015747,29.202499 73.007492,32.091953 
	C72.983727,40.416306 72.981873,48.740723 72.904449,57.528885 
z"/>
<path fill="#6441F3" opacity="1.000000" stroke="none" 
	d="
M52.834106,116.999886 
	C50.503292,115.695709 48.172474,114.391533 45.504204,113.044548 
	C45.111412,106.194801 45.101364,99.387085 44.982449,92.581268 
	C44.918861,88.942245 46.300663,86.839668 50.606941,87.098099 
	C52.330898,89.487045 53.659500,91.808319 54.571938,94.581497 
	C53.771038,96.466805 53.096024,97.891426 53.052391,99.335129 
	C52.874531,105.220207 52.889923,111.111122 52.834106,116.999886 
z"/>
<path fill="#4555F6" opacity="1.000000" stroke="none" 
	d="
M195.001358,131.007721 
	C196.304840,132.924042 197.608322,134.840363 199.062836,137.091003 
	C193.814453,142.921967 188.415039,148.418594 182.390152,153.910492 
	C179.845612,152.604202 177.926529,151.302643 176.142868,149.696960 
	C182.519318,143.264465 188.760330,137.136093 195.001358,131.007721 
z"/>
<path fill="#7C38F0" opacity="1.000000" stroke="none" 
	d="
M45.092392,171.466125 
	C47.484131,172.330505 49.810329,173.659454 52.555408,175.459335 
	C52.927952,184.286194 52.881618,192.642105 52.835285,200.998032 
	C50.502144,199.694901 48.168999,198.391769 45.500740,197.044220 
	C45.119370,188.643433 45.073112,180.287064 45.092392,171.466125 
z"/>
<path fill="#4555F6" opacity="1.000000" stroke="none" 
	d="
M182.295074,120.933548 
	C184.430435,122.165222 186.275986,123.532120 188.397949,125.267921 
	C183.116867,131.091415 177.559357,136.546021 171.655579,141.963562 
	C169.402847,140.549789 167.496414,139.173065 165.589996,137.796341 
	C171.061752,132.220490 176.533493,126.644623 182.295074,120.933548 
z"/>
<path fill="#6446F3" opacity="1.000000" stroke="none" 
	d="
M206.989014,243.963135 
	C199.920364,246.636749 192.851715,249.310379 185.352005,251.614471 
	C183.614090,249.203445 182.307236,247.161942 181.000366,245.120438 
	C188.433655,242.469421 195.866943,239.818420 203.695862,237.469360 
	C205.057327,239.835266 206.023163,241.899185 206.989014,243.963135 
z"/>
<path fill="#5A4DF4" opacity="1.000000" stroke="none" 
	d="
M207.341370,243.920258 
	C206.023163,241.899185 205.057327,239.835266 204.055954,237.429016 
	C210.446701,232.749313 216.872986,228.411942 223.665115,224.307312 
	C225.772873,226.062927 227.514755,227.585815 229.256638,229.108704 
	C222.833420,233.476105 216.408508,237.841019 209.989197,242.214157 
	C209.208618,242.745926 208.458145,243.321915 207.341370,243.920258 
z"/>
<path fill="#6B3EF2" opacity="1.000000" stroke="none" 
	d="
M180.587830,245.097794 
	C182.307236,247.161942 183.614090,249.203445 184.959381,251.581757 
	C177.300690,252.933243 169.603592,253.947937 161.454391,254.900909 
	C159.671799,252.504196 158.341278,250.169189 157.006729,247.479767 
	C164.726898,246.441956 172.451096,245.758545 180.587830,245.097794 
z"/>
<path fill="#5A4DF4" opacity="1.000000" stroke="none" 
	d="
M150.707031,186.079193 
	C148.512100,184.836838 146.604767,183.454498 144.487183,181.732269 
	C149.605301,176.142609 154.933670,170.892807 160.619797,165.793579 
	C162.789886,167.370651 164.602234,168.797165 166.414581,170.223679 
	C161.274597,175.462189 156.134613,180.700699 150.707031,186.079193 
z"/>
<path fill="#4F50F5" opacity="1.000000" stroke="none" 
	d="
M166.701675,170.081451 
	C164.602234,168.797165 162.789886,167.370651 160.818848,165.505676 
	C165.775909,160.045166 170.891678,155.023117 176.007446,150.001068 
	C177.926529,151.302643 179.845612,152.604202 182.101898,154.052612 
	C177.289001,159.446045 172.138885,164.692627 166.701675,170.081451 
z"/>
<path fill="#4555F6" opacity="1.000000" stroke="none" 
	d="
M248.278061,191.106186 
	C250.431900,192.125504 252.386246,193.397034 254.642059,194.821564 
	C251.086411,201.125443 247.229279,207.276291 242.848206,213.678070 
	C240.859314,212.226486 239.394394,210.523987 237.929474,208.821472 
	C241.312500,203.000458 244.695526,197.179428 248.278061,191.106186 
z"/>
<path fill="#4F50F5" opacity="1.000000" stroke="none" 
	d="
M237.640167,208.997833 
	C239.394394,210.523987 240.859314,212.226486 242.673660,213.964874 
	C238.636948,218.960281 234.250824,223.919769 229.560669,228.993988 
	C227.514755,227.585815 225.772873,226.062927 223.983582,224.177795 
	C228.407730,218.935089 232.879303,214.054626 237.640167,208.997833 
z"/>
<path fill="#385AF7" opacity="1.000000" stroke="none" 
	d="
M152.600143,47.377739 
	C153.977768,49.700062 154.945175,51.959270 155.955383,54.562778 
	C149.608841,55.948540 143.219543,56.990009 136.378601,57.673481 
	C134.952408,55.241753 133.977859,53.168018 133.003326,51.094276 
	C139.398865,49.834393 145.794388,48.574509 152.600143,47.377739 
z"/>
<path fill="#4F50F5" opacity="1.000000" stroke="none" 
	d="
M165.300262,137.932281 
	C167.496414,139.173065 169.402847,140.549789 171.522156,142.269165 
	C167.158813,147.075394 162.582611,151.538956 157.659760,155.965225 
	C155.403290,154.550583 153.493469,153.173218 151.583633,151.795868 
	C156.059265,147.219986 160.534897,142.644119 165.300262,137.932281 
z"/>
<path fill="#3D5CF7" opacity="1.000000" stroke="none" 
	d="
M132.619873,51.080879 
	C133.977859,53.168018 134.952408,55.241753 135.964783,57.663113 
	C130.627930,60.062931 125.253281,62.115124 119.358589,63.910332 
	C117.840500,61.605846 116.842438,59.558346 115.844376,57.510849 
	C121.308388,55.363056 126.772408,53.215267 132.619873,51.080879 
z"/>
<path fill="#4555F6" opacity="1.000000" stroke="none" 
	d="
M115.491577,57.627647 
	C116.842438,59.558346 117.840500,61.605846 118.996422,64.004517 
	C114.709824,66.944939 110.265358,69.534203 105.409355,72.025864 
	C103.669044,70.042839 102.340279,68.157417 101.011513,66.271996 
	C105.720596,63.429482 110.429688,60.586967 115.491577,57.627647 
z"/>
<path fill="#5A4DF4" opacity="1.000000" stroke="none" 
	d="
M151.294342,151.931595 
	C153.493469,153.173218 155.403290,154.550583 157.525543,156.270508 
	C154.161118,160.076279 150.584274,163.539459 147.007416,167.002640 
	C145.087234,165.702026 143.167053,164.401398 140.909363,162.954590 
	C144.049591,159.228058 147.527313,155.647690 151.294342,151.931595 
z"/>
<path fill="#4F50F5" opacity="1.000000" stroke="none" 
	d="
M100.703430,66.375664 
	C102.340279,68.157417 103.669044,70.042839 105.141739,72.277924 
	C103.089027,74.396278 101.097878,76.599449 98.619186,77.771805 
	C97.116081,78.482735 94.858665,77.598831 92.940132,77.431419 
	C93.208282,75.526085 92.855156,73.130119 93.884865,71.826187 
	C95.585281,69.672943 98.178421,68.224686 100.703430,66.375664 
z"/>
<path fill="#F8FAFB" opacity="1.000000" stroke="none" 
	d="
M52.902260,201.462708 
	C52.881618,192.642105 52.927952,184.286194 52.908619,175.465652 
	C52.888714,165.642059 52.934479,156.283081 52.910534,146.459656 
	C52.884296,136.639587 52.927769,127.283981 52.902672,117.464127 
	C52.889923,111.111122 52.874531,105.220207 53.052391,99.335129 
	C53.096024,97.891426 53.771038,96.466805 54.578224,94.934059 
	C63.691315,94.880890 72.381958,94.927071 81.536972,94.904602 
	C86.434792,94.659393 84.588341,98.059402 85.098030,100.576775 
	C85.120918,110.354668 85.076836,119.711441 85.099854,129.532410 
	C85.122192,141.020370 85.077431,152.044159 85.098686,163.532318 
	C85.041283,165.468307 84.917854,166.939911 84.901344,167.136719 
	C77.809593,167.136719 70.977463,166.958679 64.173538,167.316620 
	C63.073734,167.374466 61.426197,169.747650 61.283482,171.175659 
	C61.172726,172.283859 62.967216,174.593948 63.993771,174.640808 
	C70.857887,174.954178 77.743179,174.803604 84.965332,174.803604 
	C84.965332,177.115601 84.965332,180.554733 84.603355,184.320709 
	C78.639427,184.220810 73.040535,183.654007 67.431931,183.531326 
	C66.666046,183.514587 65.142250,185.777420 65.240692,186.870285 
	C65.361778,188.214523 66.765564,190.495743 67.704544,190.541733 
	C73.489212,190.824982 79.485237,192.580322 84.966553,189.098022 
	C84.987625,192.100067 85.008690,195.102127 85.095688,198.551132 
	C84.819946,199.484222 84.449127,200.411621 84.140915,200.391251 
	C78.120094,199.993591 72.110588,199.424789 66.089806,199.026443 
	C63.216446,198.836334 60.699951,200.163254 61.301613,203.166702 
	C61.608372,204.698059 64.301712,206.701431 66.035713,206.825745 
	C72.223457,207.269424 78.462387,206.999283 85.385986,206.999283 
	C84.951363,211.494797 84.396919,217.229660 83.420876,223.064056 
	C73.216797,223.163559 63.434322,223.163559 52.969234,223.163559 
	C52.969234,215.765015 52.969234,208.846207 52.902260,201.462708 
z"/>
<path fill="#F8FAFB" opacity="1.000000" stroke="none" 
	d="
M77.098328,246.535767 
	C77.106903,253.320877 77.048752,259.642639 76.973396,266.424622 
	C71.847084,266.884857 66.737976,266.884857 60.968857,266.884857 
	C60.968857,261.749207 60.968857,256.838348 60.901833,251.464142 
	C60.880196,244.975067 60.925587,238.949326 60.902866,232.459213 
	C65.984772,231.526367 71.134796,231.057892 77.031609,230.521469 
	C77.031609,236.228470 77.031609,241.150436 77.098328,246.535767 
z"/>
<path fill="#F7F9FB" opacity="1.000000" stroke="none" 
	d="
M76.973724,86.427658 
	C72.513054,86.920982 68.070999,86.965218 63.628826,86.987358 
	C62.986187,86.990562 62.343021,86.887695 61.077293,86.781822 
	C61.077293,82.544205 61.077293,78.340706 61.091148,73.688858 
	C62.986595,71.214523 71.644600,69.450378 74.139069,71.497856 
	C75.864151,72.913811 76.433502,76.083534 76.901878,78.585175 
	C77.348267,80.969345 76.994370,83.503349 76.973724,86.427658 
z"/>
<path fill="#F5F7FB" opacity="1.000000" stroke="none" 
	d="
M146.869690,167.308380 
	C150.584274,163.539459 154.161118,160.076279 157.872192,156.307800 
	C162.582611,151.538956 167.158813,147.075394 171.868439,142.306229 
	C177.559357,136.546021 183.116867,131.091415 188.729858,125.314018 
	C192.284027,121.807823 195.782700,118.624428 199.704163,115.056328 
	C201.302765,116.894012 202.794998,118.609413 204.287231,120.324814 
	C204.821045,120.814217 205.354874,121.303619 205.888687,121.793022 
	C202.348999,124.660072 198.809311,127.527122 195.135498,130.700943 
	C188.760330,137.136093 182.519318,143.264465 176.142868,149.696960 
	C170.891678,155.023117 165.775909,160.045166 160.461090,165.355103 
	C154.933670,170.892807 149.605301,176.142609 144.141144,181.696350 
	C142.398834,183.361053 140.792282,184.721817 138.831619,186.382523 
	C132.009384,179.573013 125.224281,172.896759 118.631256,166.035919 
	C118.108101,165.491516 118.915985,163.668045 119.294052,162.161270 
	C121.243614,158.981491 123.051720,159.203918 125.229134,161.561264 
	C127.905022,164.458298 130.783218,167.168793 133.580612,169.953217 
	C138.546310,174.895889 139.452377,174.904922 144.308167,170.071686 
	C145.123611,169.260040 145.924393,168.433670 146.869690,167.308380 
z"/>
<path fill="#793DF1" opacity="1.000000" stroke="none" 
	d="
M84.978279,188.677826 
	C79.485237,192.580322 73.489212,190.824982 67.704544,190.541733 
	C66.765564,190.495743 65.361778,188.214523 65.240692,186.870285 
	C65.142250,185.777420 66.666046,183.514587 67.431931,183.531326 
	C73.040535,183.654007 78.639427,184.220810 84.602554,184.771454 
	C84.972488,186.016113 84.981247,187.136871 84.978279,188.677826 
z"/>
</svg>