<?xml version="1.0" standalone="no"?>
<!DOCTYPE svg PUBLIC "-//W3C//DTD SVG 20010904//EN"
 "http://www.w3.org/TR/2001/REC-SVG-20010904/DTD/svg10.dtd">
<svg version="1.0" xmlns="http://www.w3.org/2000/svg"
 width="50pt" height="50pt" viewBox="0 0 512.000000 512.000000"
 preserveAspectRatio="xMidYMid meet">

<g transform="translate(0.000000,512.000000) scale(0.100000,-0.100000)"
fill="#000000" stroke="none">
<path d="M905 5015 l-25 -24 0 -336 c0 -303 -2 -335 -16 -335 -77 0 -189 -88
-212 -166 -7 -24 -12 -100 -12 -178 l0 -136 -55 0 c-46 0 -60 -4 -80 -25 l-25
-24 0 -1336 0 -1335 -95 0 c-88 0 -98 -2 -120 -25 -33 -32 -33 -78 0 -110 24
-25 27 -25 200 -25 l175 0 0 -360 0 -360 -135 0 c-131 0 -137 -1 -160 -25 -33
-32 -33 -78 0 -110 l24 -25 591 0 591 0 24 25 c33 32 33 78 0 110 -23 24 -29
25 -160 25 l-135 0 0 360 0 360 175 0 c173 0 176 0 200 25 33 32 33 78 0 110
-22 23 -32 25 -120 25 l-95 0 0 1335 0 1336 -25 24 c-20 21 -34 25 -80 25
l-55 0 0 136 c0 163 -10 200 -67 264 -42 46 -107 80 -155 80 -17 0 -18 18 -18
335 l0 336 -25 24 c-15 16 -36 25 -55 25 -19 0 -40 -9 -55 -25z m190 -880 c24
-23 25 -29 25 -160 l0 -135 -160 0 -160 0 0 135 c0 131 1 137 25 160 23 24 31
25 135 25 104 0 112 -1 135 -25z m185 -1200 l0 -744 -25 24 c-24 25 -26 25
-215 25 -189 0 -191 0 -215 -25 -33 -32 -33 -78 0 -110 24 -25 26 -25 215 -25
189 0 191 0 215 25 l25 24 0 -129 0 -129 -25 24 c-23 24 -28 25 -175 25 -147
0 -152 -1 -175 -25 -16 -15 -25 -36 -25 -55 0 -19 9 -40 25 -55 23 -24 28 -25
175 -25 147 0 152 1 175 25 l25 24 0 -129 0 -129 -25 24 c-24 25 -26 25 -215
25 -189 0 -191 0 -215 -25 -33 -32 -33 -78 0 -110 24 -25 26 -25 215 -25 189
0 191 0 215 25 l25 24 0 -184 0 -185 -320 0 -320 0 0 1280 0 1280 320 0 320 0
0 -745z m-160 -2335 l0 -360 -160 0 -160 0 0 360 0 360 160 0 160 0 0 -360z"/>
<path d="M2585 4629 c-290 -30 -609 -137 -861 -289 -92 -56 -220 -149 -271
-197 -41 -39 -44 -83 -8 -118 38 -39 73 -33 146 26 470 380 1100 517 1682 369
384 -99 734 -316 987 -615 335 -396 504 -933 449 -1433 -55 -509 -292 -959
-674 -1280 -452 -380 -1047 -530 -1630 -410 -139 28 -288 79 -438 150 -119 56
-130 59 -158 48 -53 -22 -67 -89 -26 -128 34 -32 218 -117 355 -162 752 -251
1572 -59 2131 501 313 312 508 696 588 1154 24 140 24 490 0 630 -80 458 -275
842 -587 1155 -441 440 -1067 663 -1685 599z"/>
<path d="M2948 2883 l-588 -588 -148 148 c-193 192 -172 192 -349 14 -119
-119 -133 -136 -133 -167 0 -33 22 -57 299 -334 266 -266 303 -299 331 -299
29 0 104 72 771 739 694 694 739 741 739 774 0 31 -14 48 -133 167 -119 119
-136 133 -167 133 -33 0 -72 -37 -622 -587z m72 -378 l-660 -660 -220 220
-220 220 57 57 58 58 145 -145 c131 -131 149 -145 180 -145 33 0 70 35 620
585 l585 585 57 -57 58 -58 -660 -660z"/>
</g>
</svg>
